<svg width="35" height="35" viewBox="0 0 35 35" fill="none" xmlns="http://www.w3.org/2000/svg">
<path d="M6.47702 2.85427C6.15518 3.37726 5.59196 4.42324 5.22989 5.1876C4.74713 6.23358 3.94254 6.95771 2.29311 7.80254C0.442529 8.76806 0 9.21058 0 10.0152C0 10.8198 0.442529 11.2623 2.25288 12.1876C4.10346 13.1531 4.7069 13.7566 5.67242 15.6071C7.28162 18.7451 8.40806 18.7451 10.0173 15.6071C10.9828 13.7566 11.5862 13.1531 13.4368 12.1876C15.2472 11.2623 15.6897 10.8198 15.6897 10.0152C15.6897 9.21058 15.2472 8.76806 13.4368 7.84277C11.5862 6.87725 10.9828 6.27381 10.0173 4.42324C8.68967 1.84853 7.48277 1.32554 6.47702 2.85427Z" fill="white"/>
<path d="M22.8506 8.88885C22.6092 9.17046 21.7644 10.6992 20.9598 12.3084C19.5517 15.1245 19.4712 15.2452 16.2126 16.9348C13.3965 18.3831 12.8735 18.8256 12.8735 19.6704C12.8735 20.5153 13.3965 20.9578 16.2529 22.4865C19.5517 24.2566 19.6322 24.3371 21.2816 27.5153C22.6896 30.2509 23.0919 30.7336 23.9368 30.7336C24.7816 30.7336 25.1839 30.2509 26.5919 27.5153C28.2414 24.3371 28.3218 24.2566 31.6207 22.4865C34.477 20.9578 35 20.5153 35 19.6704C35 18.8256 34.477 18.3831 31.6207 16.8544C28.3218 15.0842 28.2414 15.0038 26.5919 11.8256C24.9023 8.56701 23.8161 7.68196 22.8506 8.88885Z" fill="white"/>
<path d="M7.88502 25.7452C7.44249 26.4291 6.55743 27.3141 5.87352 27.7567C4.26433 28.7222 4.26433 29.9291 5.87352 30.8946C6.55743 31.3371 7.44249 32.2222 7.88502 32.9061C8.32755 33.6302 8.97123 34.1532 9.45399 34.1532C9.93675 34.1532 10.5804 33.6302 11.023 32.9061C11.4655 32.2222 12.3505 31.3371 13.0345 30.8946C14.6437 29.9291 14.6437 28.7222 13.0345 27.7567C12.3505 27.3141 11.4655 26.4291 11.023 25.7452C10.0574 24.136 8.85054 24.136 7.88502 25.7452Z" fill="white"/>
</svg>
