<svg width="32" height="32" viewBox="0 0 32 32" fill="none" xmlns="http://www.w3.org/2000/svg">
<path d="M6.45002 5.95001C5.90002 7.30001 4.85002 8.90001 4.20002 9.55001C2.65002 11 2.70002 11.8 4.40002 12.85C5.15002 13.3 6.70002 14.6 7.85002 15.7C9.40002 17.15 10.15 17.55 10.55 17.15C11.25 16.45 10.5 15 8.50002 13.35L7.00002 12.05L8.85002 11.65C9.90002 11.45 13.35 11.25 16.5 11.25C21.15 11.3 22.65 11.5 24.25 12.25C26 13.15 26.3 13.55 26.7 15.65C27 17.05 27 18.95 26.7 20.4C26.3 22.45 26 22.85 24.25 23.75C22.5 24.6 21.35 24.75 15.25 24.65C11.4 24.6 7.60002 24.5 6.80002 24.4C4.85002 24.2 4.55002 25.35 6.35002 26.05C8.55002 26.9 17.35 27.2 21.3 26.55C27.4 25.5 29 23.7 29 18C29 12.3 27.4 10.5 21.3 9.45001C17.95 8.90001 10.2 9.10001 7.70002 9.80001C6.60002 10.1 6.60002 10.05 7.85002 7.55001C9.05002 5.15001 9.10002 3.50001 8.05002 3.50001C7.75002 3.50001 7.05002 4.60001 6.45002 5.95001Z" fill="white"/>
</svg>
