<svg width="38" height="38" viewBox="0 0 38 38" fill="none" xmlns="http://www.w3.org/2000/svg">
<path d="M8.9062 6.41246C3.62183 8.78746 1.5437 14.9031 4.1562 20.6625C5.64057 23.9875 10.8062 29.3312 13.8937 30.875C19.1781 33.4281 24.4031 31.9437 29.6281 26.4218C36.575 19.0593 36.8718 11.6968 30.3406 7.30309C27.9062 5.64059 23.9875 5.52184 21.0187 6.88746C19.1781 7.77809 18.8218 7.77809 16.9812 6.88746C14.9625 5.93746 10.5687 5.69996 8.9062 6.41246ZM16.8031 9.49996C17.6343 10.1531 18.5843 10.6875 19 10.6875C19.4156 10.6875 20.3656 10.1531 21.1968 9.49996C24.2843 7.06559 29.9843 8.43121 31.825 11.9937C33.9625 16.15 30.8156 23.5125 25.0562 27.4312C20.0093 30.9343 15.3187 30.1625 10.2718 25.175C4.51245 19.4156 3.74058 13.4187 8.1937 9.67809C10.3312 7.89684 14.6656 7.83746 16.8031 9.49996Z" fill="white"/>
</svg>
