<svg width="38" height="38" viewBox="0 0 38 38" fill="none" xmlns="http://www.w3.org/2000/svg">
<path d="M9.05531 6.38186C8.83694 6.60024 8.67315 7.20077 8.67315 7.63752C8.67315 8.12886 7.96344 8.83858 7.08994 9.16614C4.19648 10.2034 4.36026 15.4444 7.25372 16.2087L8.61856 16.5363L8.78234 24.2886C8.94612 30.676 9.1099 31.9863 9.76503 31.9863C10.4201 31.9863 10.5839 30.676 10.7477 24.2886L10.9115 16.5363L12.2763 16.2087C15.1698 15.4444 15.3336 10.2034 12.4401 9.16614C11.6212 8.83858 10.8569 8.07426 10.7477 7.47374C10.5839 6.32727 9.65584 5.78133 9.05531 6.38186ZM11.4574 10.9677C14.1325 12.4418 11.3482 15.3898 8.40019 14.2433C6.81697 13.6428 6.5986 11.8412 8.01803 11.0223C9.21909 10.3126 10.1472 10.3126 11.4574 10.9677Z" fill="white"/>
<path d="M17.7903 6.38191C17.5719 6.60028 17.4081 9.8759 17.4081 13.6429V20.5762L15.8249 21.1768C12.9861 22.214 13.0953 27.455 15.9887 28.2193C17.026 28.4377 17.4081 28.9291 17.5173 30.2393C17.7357 32.5868 19.2643 32.5868 19.4827 30.2393C19.5919 28.9291 19.974 28.4377 21.0113 28.2193C23.9048 27.455 24.014 22.214 21.1751 21.1768L19.6465 20.5762L19.4827 13.4791C19.3189 6.92785 18.9368 5.23545 17.7903 6.38191ZM20.1924 22.9784C22.8675 24.4524 20.0832 27.4004 17.1352 26.254C15.552 25.6534 15.3336 23.8519 16.753 23.033C17.9541 22.3232 18.8822 22.3232 20.1924 22.9784Z" fill="white"/>
<path d="M26.5253 6.38187C26.3069 6.60024 26.1431 7.96508 26.1431 9.38451C26.1431 11.6774 25.9794 12.005 24.7783 12.278C21.8302 13.0423 21.6665 18.2287 24.5599 19.3205L26.0885 19.9211L26.2523 25.981C26.3615 30.8944 26.5799 31.9863 27.235 31.9863C27.8901 31.9863 28.1085 30.8944 28.2177 25.981L28.3815 19.9211L29.9101 19.3205C32.8035 18.2833 32.6398 13.0423 29.7463 12.278C28.5452 12.005 28.3815 11.6229 28.2177 9.16614C28.0539 6.60024 27.3988 5.50837 26.5253 6.38187ZM28.9274 14.2433C31.6025 15.7174 28.8182 18.6654 25.8702 17.519C24.287 16.9184 24.0686 15.1168 25.488 14.2979C26.6891 13.5882 27.6172 13.5882 28.9274 14.2433Z" fill="white"/>
</svg>
