<svg width="35" height="35" viewBox="0 0 35 35" fill="none" xmlns="http://www.w3.org/2000/svg">
<path d="M17.215 0.000111981C16.6017 -0.0046767 15.9895 0.144109 15.4478 0.448467C11.97 2.39451 8.14399 4.73256 4.16213 7.00956C4.1595 7.01129 4.15688 7.01303 4.15426 7.01478C2.19611 8.15356 0.6092 9.94214 0.33635 12.0979V12.1005C-0.309543 17.2713 -0.0250629 22.4533 1.18711 27.6156C1.18964 27.6244 1.19227 27.633 1.19499 27.6417C1.55679 29.0592 2.42897 30.3537 3.51094 31.4449C4.59291 32.5361 5.88653 33.4246 7.31572 33.804C7.32444 33.8067 7.33319 33.8093 7.34197 33.8118C13.8184 35.3961 20.3279 35.3961 26.8044 33.8118C26.8132 33.8093 26.8219 33.8067 26.8306 33.804C28.2598 33.4246 29.5535 32.5364 30.6354 31.4449C31.7173 30.3534 32.5904 29.0576 32.9514 27.6391C32.9532 27.6313 32.9549 27.6235 32.9566 27.6156C34.1716 22.445 34.4574 17.256 33.8074 12.077L33.8047 12.0744C33.532 9.93607 31.9657 8.15747 30.0262 7.01478C30.0236 7.01303 30.021 7.01129 30.0183 7.00956C26.1249 4.75253 22.385 2.42956 18.9795 0.471927C18.4419 0.162288 17.8282 0.00490093 17.215 0.000111981ZM17.1966 2.6355C17.3292 2.63676 17.463 2.68539 17.6298 2.78148C20.976 4.70497 24.7244 7.0305 28.6634 9.3139C30.0256 10.1197 31.0185 11.492 31.1369 12.4081C31.7471 17.2693 31.483 22.1179 30.3413 26.9874C30.1503 27.7348 29.5344 28.7502 28.7186 29.5733C27.9028 30.3963 26.8926 31.0227 26.14 31.2233C25.1359 31.4683 24.1359 31.4271 23.1335 31.5909C23.7216 28.2252 23.7387 24.7324 23.018 21.4012C23.0184 21.2986 23.007 21.1963 22.9838 21.0962C22.9757 21.0602 22.9661 21.0246 22.955 20.9894C22.9533 20.9824 22.9515 20.9755 22.9497 20.9685C22.9463 20.958 22.9428 20.9476 22.9392 20.9372C22.9358 20.9285 22.9323 20.9198 22.9287 20.9112C22.916 20.8785 22.902 20.8463 22.8867 20.8147C22.8677 20.7746 22.8466 20.7355 22.8237 20.6974C22.7016 20.4916 22.526 20.322 22.3154 20.2065C22.1048 20.091 21.8668 20.0336 21.6263 20.0405C18.7197 18.785 15.4792 18.7943 12.5726 20.0457C12.2495 20.0229 11.929 20.1166 11.6699 20.3096C11.4108 20.5026 11.2307 20.7819 11.1625 21.0962C11.1609 21.1031 11.1615 21.1103 11.1599 21.1171C11.1397 21.2079 11.1292 21.3005 11.1284 21.3934V21.3986C10.4071 24.7306 10.4246 28.2244 11.0128 31.5909C10.0105 31.4271 9.01041 31.4683 8.0063 31.2233C7.25374 31.0227 6.24381 30.3963 5.42777 29.5733C4.61328 28.7518 3.99781 27.7393 3.80503 26.9926C2.66562 22.1309 2.39824 17.2848 3.00416 12.4315V12.4289C3.12229 11.5044 4.13666 10.1178 5.51442 9.31651C9.53748 7.01567 13.3615 4.67741 16.7686 2.77105H16.7712C16.9326 2.68035 17.064 2.63424 17.1966 2.6355ZM17.0732 21.6332C18.2278 21.6311 19.3553 21.9767 20.4421 22.4283C21.0487 25.54 21.0554 28.8273 20.4053 31.9245C18.1855 32.1241 15.9608 32.1241 13.741 31.9245C13.0921 28.8324 13.0981 25.5511 13.7017 22.4439C14.7875 21.9868 15.9168 21.6353 17.0732 21.6332Z" fill="white"/>
</svg>
