<svg width="300" height="300" viewBox="0 0 300 300" fill="none" xmlns="http://www.w3.org/2000/svg">
<path d="M150 250C205.228 250 250 205.228 250 150C250 94.7715 205.228 50 150 50C94.7715 50 50 94.7715 50 150C50 205.228 94.7715 250 150 250Z" stroke="white" stroke-width="8"/>
<path d="M68 208L98 168L126.5 188L158 128L189.5 149L218 98L248 138" stroke="white" stroke-width="8" stroke-linecap="round" stroke-linejoin="round"/>
<path d="M69 210C70.6569 210 72 208.657 72 207C72 205.343 70.6569 204 69 204C67.3431 204 66 205.343 66 207C66 208.657 67.3431 210 69 210Z" fill="white"/>
<path d="M98 172C99.6569 172 101 170.657 101 169C101 167.343 99.6569 166 98 166C96.3431 166 95 167.343 95 169C95 170.657 96.3431 172 98 172Z" fill="white"/>
<path d="M158 131C159.657 131 161 129.657 161 128C161 126.343 159.657 125 158 125C156.343 125 155 126.343 155 128C155 129.657 156.343 131 158 131Z" fill="white"/>
<path d="M218 102C219.657 102 221 100.657 221 99C221 97.3431 219.657 96 218 96C216.343 96 215 97.3431 215 99C215 100.657 216.343 102 218 102Z" fill="white"/>
<path d="M248 140C249.657 140 251 138.657 251 137C251 135.343 249.657 134 248 134C246.343 134 245 135.343 245 137C245 138.657 246.343 140 248 140Z" fill="white"/>
</svg>
