<svg width="35" height="35" viewBox="0 0 35 35" fill="none" xmlns="http://www.w3.org/2000/svg">
<path d="M14.9844 3.77344C11.8125 5.14062 10.3907 10.3359 11.211 17.8281C11.4844 20.6719 11.9219 21.7656 13.125 23.1328C14.4922 24.6641 15.0391 24.8828 17.5 24.8828C19.961 24.8828 20.5079 24.6641 21.875 23.1328C23.0782 21.7656 23.5157 20.6719 23.7891 17.8281C24.3907 12.1406 23.6797 7.32812 21.9844 5.41406C20.3985 3.60938 17.1172 2.89844 14.9844 3.77344ZM20.2891 6.89062C21.4922 8.20312 21.6016 8.69531 21.6016 14.2188C21.6016 19.7422 21.4922 20.2344 20.2891 21.5469C19.5235 22.3672 18.375 22.9688 17.5 22.9688C16.625 22.9688 15.4766 22.3672 14.711 21.5469C13.5079 20.2344 13.3985 19.7422 13.3985 14.2188C13.3985 8.69531 13.5079 8.20312 14.711 6.89062C15.4766 6.07031 16.625 5.46875 17.5 5.46875C18.375 5.46875 19.5235 6.07031 20.2891 6.89062Z" fill="black"/>
<path d="M6.89062 16.8984C6.5078 17.5 7.43749 22.6406 8.14843 24.0078C9.07812 25.6484 12.3594 28.2734 14.4375 28.9844C15.9141 29.4219 16.3516 29.9141 16.5156 31.0625C16.7344 33.0312 18.2656 33.0312 18.4844 31.0625C18.6484 29.9141 19.0859 29.4219 20.6172 28.9297C23.2422 28.1094 26.6328 24.9375 27.2891 22.8047C28.4375 19.0313 28.5469 16.9531 27.6172 16.625C26.4687 16.1328 26.3594 16.3516 25.7031 19.5781C25.4297 21.1641 24.7734 23.0234 24.2812 23.8438C23.1328 25.5938 19.7422 27.3438 17.5 27.3438C15.2578 27.3438 11.8672 25.5938 10.7187 23.8438C10.0078 22.75 8.74999 18.1016 8.74999 16.625C8.74999 16.1875 7.16405 16.4063 6.89062 16.8984Z" fill="black"/>
</svg>
