<svg width="38" height="38" viewBox="0 0 38 38" fill="none" xmlns="http://www.w3.org/2000/svg">
<path d="M19 4.99995C18.8616 4.99825 18.7243 5.02532 18.5968 5.07944C18.4694 5.13355 18.3546 5.21354 18.2596 5.31434C18.1647 5.41513 18.0918 5.53454 18.0454 5.665C17.999 5.79546 17.9802 5.93412 17.9902 6.07222C15.6072 6.41292 13.4893 7.94151 11.8652 10.1445C10.0152 12.654 8.7341 16.0705 8.23828 19.9472V19.9492C8.16941 20.4881 7.84299 20.9873 7.33789 21.3418H7.33594C6.61018 21.8523 6 22.5688 6 23.5C6 24.4465 6.62757 25.1701 7.375 25.6855C8.12243 26.2009 9.08294 26.5997 10.2344 26.9355C11.3665 27.2657 12.6925 27.523 14.1426 27.705C14.5009 30.1095 16.5001 32 19 32C21.5014 32 23.513 30.1117 23.8691 27.7031C25.3142 27.5211 26.6368 27.2647 27.7656 26.9355C28.9171 26.5997 29.8776 26.2009 30.625 25.6855C31.3724 25.1701 32 24.4465 32 23.5C32 22.5688 31.3898 21.8524 30.6641 21.3418H30.6621C30.157 20.9873 29.8306 20.4881 29.7617 19.9492V19.9472C29.266 16.0706 27.9848 12.654 26.1348 10.1445C24.5107 7.94151 22.3928 6.41292 20.0098 6.07222C20.0198 5.93412 20.001 5.79546 19.9546 5.665C19.9082 5.53454 19.8353 5.41513 19.7404 5.31434C19.6454 5.21354 19.5306 5.13355 19.4032 5.07944C19.2757 5.02532 19.1384 4.99825 19 4.99995ZM19 7.99995C21.0164 7.99995 22.9322 9.16883 24.5254 11.33C26.1186 13.4912 27.3182 16.6108 27.7773 20.2011C27.9264 21.3676 28.6114 22.3449 29.5137 22.9785C29.9603 23.2931 30 23.4811 30 23.5C30 23.5199 29.9554 23.7169 29.4883 24.039C29.0212 24.3611 28.2253 24.718 27.2051 25.0156C25.1647 25.6107 22.2347 26 19 26C15.7653 26 12.8353 25.6107 10.7949 25.0156C9.77473 24.718 8.97882 24.3611 8.51172 24.039C8.04461 23.7169 8 23.5199 8 23.5C8 23.4811 8.03974 23.2931 8.48633 22.9785H8.48828C9.39058 22.3449 10.0736 21.3676 10.2227 20.2011C10.6818 16.6108 11.8814 13.4912 13.4746 11.33C15.0678 9.16883 16.9836 7.99995 19 7.99995ZM16.3477 27.8437C17.2278 27.9016 18.061 28 19 28C19.9445 28 20.783 27.9022 21.668 27.8437C21.2765 29.0439 20.3386 30 19 30C17.6628 30 16.74 29.0422 16.3477 27.8437Z" fill="white"/>
</svg>
