<svg width="20" height="21" viewBox="0 0 20 21" fill="none" xmlns="http://www.w3.org/2000/svg">
<path d="M17 5.28281C16.7187 4.85625 16 4.29843 15.4062 4.06875C13.8437 3.37968 8.99997 3.11718 6.34372 3.60937C4.43747 3.9375 3.93747 4.16718 3.24997 5.02031C2.21872 6.33281 2.34372 7.28437 4.06247 11.0578C5.78122 14.7328 8.43747 17.7187 9.99997 17.7187C11.5625 17.7187 14.125 14.8312 15.875 11.1234C17.4687 7.71093 17.75 6.36562 17 5.28281ZM15.0312 10.0078C13.8125 12.7641 11.4375 16.0125 10.4687 16.275C9.31247 16.5703 8.40622 15.7828 6.62497 12.9937C4.87497 10.2375 3.62497 7.12031 3.93747 6.16875C4.03122 5.84062 4.49997 5.38125 4.93747 5.21718C6.34372 4.62656 10.9375 4.49531 13.375 4.92187C16.5937 5.47968 16.7812 6.07031 15.0312 10.0078Z" fill="white"/>
</svg>
