<svg width="35" height="35" viewBox="0 0 35 35" fill="none" xmlns="http://www.w3.org/2000/svg">
<path d="M17.0625 6.01564C9.46094 8.03908 4.375 10.9922 4.375 13.3985C4.375 15.2031 7.71094 18.3203 10.8828 19.4688C14.1641 20.7266 14.6016 21.1094 15.0391 22.9688C15.9141 26.961 20.3984 31.336 22.6953 30.4063C25.4844 29.3672 29.6953 18.1016 29.75 11.6485C29.8047 8.25783 29.6406 7.4922 28.6016 6.45314C26.9062 4.81251 22.2578 4.59376 17.0625 6.01564ZM26.7969 8.20314C28.1641 9.57033 28.1641 11.7578 26.8516 17.1172C25.5391 22.0938 23.7344 26.4141 22.4766 27.5625C21.6562 28.3281 21.4375 28.3281 20.3438 27.5625C19.0312 26.6328 17.6641 24.2813 16.8984 21.6563C16.4609 20.125 16.625 19.7422 19.5234 16.8438C21.9844 14.3828 22.5312 13.5625 21.9844 13.0156C21.4375 12.4688 20.6719 13.0156 18.1562 15.4766C15.0938 18.4844 14.9844 18.5391 13.0703 18.0469C10.6094 17.336 6.39844 14.3828 6.72656 13.5078C7.10938 12.3047 10.3906 10.5 14.6562 9.07814C21.6562 6.78126 25.1562 6.56251 26.7969 8.20314Z" fill="black"/>
</svg>
