<svg width="32" height="32" viewBox="0 0 32 32" fill="none" xmlns="http://www.w3.org/2000/svg">
<path d="M16 3C14.8253 3 13.6516 3.21099 12.5312 3.63281C12.3121 3.71545 12.129 3.87235 12.0137 4.07617C11.5046 4.97391 11.1031 5.91055 10.7168 6.85156C9.70979 6.71299 8.69756 6.59227 7.66405 6.58398C7.48195 6.58265 7.30294 6.63105 7.14633 6.72399C6.98972 6.81692 6.86146 6.95085 6.77538 7.11133C5.18304 8.5163 4.10807 10.3869 3.68749 12.4609C3.59158 12.6162 3.53997 12.7947 3.53825 12.9772C3.53653 13.1596 3.58476 13.3391 3.67772 13.4961C4.20315 14.3837 4.81577 15.1977 5.43944 16C4.81596 16.8026 4.20307 17.6173 3.67772 18.5039C3.58552 18.6605 3.53771 18.8392 3.53943 19.0209C3.54115 19.2026 3.59234 19.3804 3.68749 19.5352C4.10782 21.612 5.18229 23.4865 6.77733 24.8926L6.77929 24.8965C6.86609 25.0549 6.99419 25.1869 7.14997 25.2784C7.30575 25.3698 7.4834 25.4174 7.66405 25.416C8.69756 25.4077 9.70979 25.287 10.7168 25.1484C11.1031 26.0895 11.5046 27.0261 12.0137 27.9238C12.129 28.1277 12.3121 28.2846 12.5312 28.3672C14.7721 29.2108 17.2299 29.2108 19.4707 28.3672C19.6898 28.2846 19.873 28.1277 19.9883 27.9238C20.4973 27.0261 20.8969 26.0894 21.2832 25.1484C22.2908 25.2872 23.3037 25.4077 24.3379 25.416C24.5197 25.417 24.6983 25.3684 24.8545 25.2755C25.0107 25.1826 25.1387 25.0489 25.2246 24.8887C26.819 23.4819 27.897 21.6084 28.3164 19.5312C28.4102 19.3766 28.4603 19.1993 28.4613 19.0184C28.4624 18.8375 28.4143 18.6597 28.3223 18.5039C27.7968 17.6163 27.1842 16.8023 26.5605 16C27.1847 15.1973 27.797 14.3834 28.3223 13.4961C28.4152 13.3391 28.4634 13.1596 28.4617 12.9772C28.46 12.7947 28.4084 12.6162 28.3125 12.4609C27.892 10.3881 26.8176 8.51793 25.2266 7.11328C25.1407 6.95244 25.0126 6.81811 24.856 6.72482C24.6993 6.63154 24.5202 6.58283 24.3379 6.58398C23.3037 6.59228 22.2908 6.71282 21.2832 6.85156C20.8969 5.9106 20.4973 4.97387 19.9883 4.07617C19.873 3.87235 19.6898 3.71545 19.4707 3.63281C18.3503 3.21099 17.1747 3 16 3ZM16 5C16.8199 5 17.6323 5.18202 18.4258 5.44141C18.9246 6.36019 19.3815 7.29133 19.7402 8.25391C19.8216 8.47253 19.9768 8.65584 20.179 8.77211C20.3813 8.88838 20.6178 8.93031 20.8476 8.89062C21.8463 8.71681 22.8819 8.64692 23.9277 8.61914C25.174 9.72528 26.0182 11.1953 26.3555 12.8281C25.8068 13.7169 25.2273 14.5765 24.5742 15.3594C24.4242 15.5392 24.3421 15.7659 24.3421 16C24.3421 16.2341 24.4242 16.4608 24.5742 16.6406C25.2269 17.4241 25.8068 18.2833 26.3555 19.1719C26.0182 20.8047 25.174 22.2747 23.9277 23.3809C22.8819 23.3531 21.8463 23.2832 20.8476 23.1094C20.6178 23.0697 20.3813 23.1116 20.179 23.2279C19.9768 23.3442 19.8216 23.5275 19.7402 23.7461C19.3815 24.7087 18.9246 25.6398 18.4258 26.5586C16.8389 27.0774 15.1611 27.0774 13.5742 26.5586C13.0754 25.6398 12.6205 24.7086 12.2617 23.7461C12.1803 23.5271 12.0248 23.3435 11.8221 23.2272C11.6195 23.1109 11.3825 23.0692 11.1523 23.1094C10.1538 23.2832 9.11992 23.3531 8.07421 23.3809C6.82787 22.2747 5.9818 20.8047 5.64452 19.1719C6.1933 18.2838 6.77474 17.4252 7.42772 16.6406C7.5777 16.4608 7.65984 16.2341 7.65984 16C7.65984 15.7659 7.5777 15.5392 7.42772 15.3594C6.77467 14.5755 6.19536 13.7152 5.64647 12.8262C5.98411 11.1943 6.8285 9.72473 8.07421 8.61914C9.11992 8.64693 10.1538 8.71682 11.1523 8.89062C11.3825 8.9308 11.6195 8.88911 11.8221 8.77281C12.0248 8.6565 12.1803 8.47291 12.2617 8.25391C12.6205 7.29136 13.0754 6.36016 13.5742 5.44141C14.3676 5.18202 15.1801 5 16 5ZM16 11C14.4167 11 13.1019 11.6298 12.2519 12.5859C11.402 13.5421 11 14.7778 11 16C11 17.2222 11.402 18.4579 12.2519 19.4141C13.1019 20.3702 14.4167 21 16 21C17.5833 21 18.8981 20.3702 19.748 19.4141C20.598 18.4579 21 17.2222 21 16C21 14.7778 20.598 13.5421 19.748 12.5859C18.8981 11.6298 17.5833 11 16 11ZM16 13C17.0833 13 17.7685 13.3702 18.2519 13.9141C18.7353 14.4579 19 15.2222 19 16C19 16.7778 18.7353 17.5421 18.2519 18.0859C17.7685 18.6298 17.0833 19 16 19C14.9167 19 14.2314 18.6298 13.748 18.0859C13.2646 17.5421 13 16.7778 13 16C13 15.2222 13.2646 14.4579 13.748 13.9141C14.2314 13.3702 14.9167 13 16 13Z" fill="white"/>
</svg>
