<svg width="35" height="35" viewBox="0 0 35 35" fill="none" xmlns="http://www.w3.org/2000/svg">
<path d="M13.3894 1.2788C12.3872 2.03188 10.2574 3.87274 8.69141 5.46257C6.31111 7.88915 5.49679 8.30753 3.11649 8.0565C-0.0781327 7.80548 -1.14301 9.39531 1.48786 10.7341C4.5572 12.3239 6.43639 11.6545 11.0717 7.3871C13.6399 5.04419 16.3334 3.20333 17.1478 3.20333C17.9621 3.20333 20.405 3.95641 22.5974 4.87684C24.7272 5.79727 27.0448 6.55035 27.6712 6.55035C29.5504 6.55035 35 3.03598 35 1.86453C35 0.35837 33.1835 0.35837 30.3021 2.03188C28.1097 3.20333 27.6086 3.20333 23.0985 1.6135C17.3983 -0.478384 15.895 -0.478384 13.3894 1.2788Z" fill="white"/>
<path d="M14.3914 10.6504C12.2617 13.4954 11.8232 27.8876 13.7024 32.5734C14.9552 35.6694 19.9663 35.6694 21.2191 32.5734C22.1587 30.1468 22.6599 22.2813 22.1587 17.0098C21.6576 11.4872 20.2169 9.06062 17.4608 9.06062C16.4585 9.06062 15.0178 9.8137 14.3914 10.6504ZM19.4026 14.9179C19.9663 17.5955 19.9663 26.4651 19.4026 29.1427C19.0894 30.6489 18.5256 31.2346 17.4608 31.2346C16.2706 31.2346 15.8321 30.6489 15.3937 28.306C14.7673 25.21 15.0805 15.0016 15.8948 13.3281C16.6464 11.6546 18.9641 12.6587 19.4026 14.9179Z" fill="white"/>
<path d="M26.4182 13.8301C25.5412 15.5873 25.2906 17.8465 25.2906 23.2854C25.2906 32.4897 26.2929 35 29.9886 35C33.6844 35 34.6866 32.4897 34.6866 23.2854C34.6866 14.0812 33.6844 11.5709 29.9886 11.5709C27.9842 11.5709 27.2951 11.9893 26.4182 13.8301ZM31.8678 17.0935C32.2436 18.2649 32.4942 21.0262 32.4942 23.2854C32.4942 28.7243 31.6172 31.653 29.9886 31.653C28.36 31.653 27.483 28.7243 27.483 23.2854C27.483 17.8465 28.36 14.9179 29.9886 14.9179C30.8029 14.9179 31.492 15.7547 31.8678 17.0935Z" fill="white"/>
<path d="M1.55033 17.8465C-0.516777 20.6915 -0.516777 30.3142 1.55033 33.4102C2.23937 34.4143 3.42952 35 4.87023 35C7.68901 35 8.44069 34.3306 9.255 31.402C10.5704 26.7998 9.75612 18.8507 7.87693 17.2608C6.5615 16.173 2.55256 16.5077 1.55033 17.8465ZM7.1879 22.8671C7.37581 24.4569 7.37581 27.1345 7.1879 28.7243C6.81206 31.2346 6.49886 31.653 4.93287 31.653C3.36688 31.653 3.05368 31.2346 2.67784 28.7243C2.48992 27.1345 2.48992 24.4569 2.67784 22.8671C3.05368 20.3568 3.36688 19.9384 4.93287 19.9384C6.49886 19.9384 6.81206 20.3568 7.1879 22.8671Z" fill="white"/>
</svg>
