<svg width="37" height="35" viewBox="0 0 37 35" fill="none" xmlns="http://www.w3.org/2000/svg">
<path d="M19.1345 0.65575C10.9344 2.88618 3.12786 7.01905 1.88144 9.90549C0.175813 13.5791 -0.480197 20.336 0.372616 24.9937C1.55343 31.4882 2.40625 32.8002 6.1455 33.7842C14.28 35.8835 28.0562 35.1619 31.5331 32.4066C32.5827 31.5538 33.4355 29.9138 33.9603 27.5522C34.4195 25.5185 35.1411 23.6161 35.6659 23.2225C36.7812 22.2385 36.7812 18.4336 35.6659 17.4496C35.1411 17.056 34.4195 15.1536 33.9603 13.1199C33.3699 10.6271 32.5827 9.11828 31.3363 8.06866C30.3523 7.21585 28.581 5.18222 27.4002 3.41099C26.2194 1.70537 25.0386 0.327747 24.7106 0.327747C24.4482 0.327747 23.7922 0.196545 23.2674 0.0653419C22.8081 -0.131462 20.9713 0.130943 19.1345 0.65575ZM25.8914 5.96943C25.7602 6.03503 22.8738 5.96943 19.5281 5.77263C12.9024 5.31342 12.8368 4.85421 19.2657 3.34539C23.005 2.42698 23.0706 2.42698 24.5794 4.067C25.4322 4.98542 26.0226 5.83823 25.8914 5.96943ZM28.0562 9.51188C29.7619 9.97109 30.6147 10.6927 30.8771 11.7423C31.0739 12.5951 31.4675 13.7759 31.6643 14.3664C31.9923 15.2192 31.5987 15.416 29.8931 15.416C27.4002 15.4816 25.957 16.3344 24.7762 18.5648C23.2018 21.5169 26.0226 25.2561 29.8275 25.2561C31.5987 25.2561 31.9923 25.4529 31.6643 26.3057C31.4675 26.8961 31.0739 28.0114 30.8771 28.8642C30.2867 31.2914 26.8098 32.1442 17.8225 32.1442C7.58872 32.1442 4.76788 31.2914 3.58706 28.0114C2.53745 24.8625 2.53745 15.8096 3.58706 12.6607C4.50548 10.1023 5.62069 9.51188 11.2624 8.59347C14.2144 8.13426 25.3666 8.72467 28.0562 9.51188ZM33.7635 20.1392C33.9603 21.5825 33.6323 22.0417 32.3859 22.3041C28.581 23.2881 25.4978 21.2545 27.3346 19.024C27.925 18.3024 29.0402 18.04 30.8771 18.1712C33.2387 18.368 33.5667 18.5648 33.7635 20.1392Z" fill="white"/>
</svg>
